<svg width="24" height="27" viewBox="0 0 24 27" fill="none" xmlns="http://www.w3.org/2000/svg">
<g id="Group 35987">
<g id="Group">
<path id="Vector" d="M12.439 14.4999C13.3171 14.5493 14.3932 14.4256 15.4693 14.5741C18.1163 14.9328 20.12 17.1097 20.1695 19.769C20.1942 20.6348 19.8108 21.3151 18.9821 21.6985C17.9802 22.1686 16.9041 22.3788 15.8157 22.5025C13.045 22.8117 10.2868 22.8117 7.52851 22.3294C6.79875 22.2057 6.08136 22.0078 5.41344 21.6985C4.59709 21.3275 4.18892 20.6348 4.23839 19.7443C4.41156 16.7881 6.77401 14.537 9.74254 14.5246C10.5713 14.4999 11.4123 14.4999 12.439 14.4999Z" fill="white"/>
<path id="Vector_2" d="M12.1917 12.608C9.47059 12.608 7.26893 10.394 7.2813 7.69755C7.29367 5.02588 9.52007 2.82422 12.2041 2.82422C14.9129 2.82422 17.1393 5.03825 17.1393 7.72229C17.1393 10.4311 14.9253 12.608 12.1917 12.608Z" fill="white"/>
</g>
<g id="Group 35985">
<rect id="Rectangle 3964" x="1.91211" y="1.91211" width="20.1765" height="23" rx="1.5" stroke="white"/>
<rect id="Rectangle 3965" x="19.7656" width="4.23529" height="4.23529" fill="white"/>
<rect id="Rectangle 3967" x="19.7656" y="22.5879" width="4.23529" height="4.23529" fill="white"/>
<rect id="Rectangle 3966" width="4.23529" height="4.23529" fill="white"/>
<rect id="Rectangle 3968" y="22.5879" width="4.23529" height="4.23529" fill="white"/>
</g>
</g>
</svg>
