
<svg width="27" height="16" viewBox="0 0 27 16" fill="none" xmlns="http://www.w3.org/2000/svg">
<g id="Group">
<path id="Vector" d="M9.14384 0.00467085C11.0881 0.00467085 13.0323 -0.00583856 14.9766 0.00467085C16.5845 0.0151803 17.6985 0.782368 18.1399 2.11706C18.2555 2.47438 18.2765 2.8317 18.2765 3.21004C18.2765 6.36287 18.2765 9.51569 18.2765 12.6685C18.2765 14.6653 17.11 15.9475 15.1342 15.9685C11.1196 16.0105 7.11552 16.0105 3.10093 15.9685C1.20923 15.9475 0.0216699 14.6548 0.0216699 12.7736C0.0216699 9.59977 0.0742169 6.43643 0.000651032 3.26259C-0.0308772 1.65465 1.08312 0.00467085 3.25857 0.00467085C5.22383 0.0151803 7.17858 0.00467085 9.14384 0.00467085Z" fill="white"/>
<path id="Vector_2" d="M26.9982 7.96046C26.9982 9.4528 27.0087 10.9346 26.9982 12.427C26.9877 13.9613 25.611 14.8021 24.2553 14.0664C22.805 13.2782 21.3967 12.4375 19.9674 11.6282C19.7047 11.4811 19.5996 11.2814 19.5996 10.9872C19.6101 8.96936 19.6101 6.96207 19.5996 4.94426C19.5996 4.64999 19.7257 4.46083 19.9779 4.31369C21.3757 3.51498 22.7629 2.69524 24.1712 1.90704C25.5795 1.11883 26.9982 1.97009 26.9982 3.58854C27.0087 5.05986 26.9982 6.51016 26.9982 7.96046Z" fill="white"/>
</g>
</svg>